<?xml version="1.0" standalone="no"?>
<!DOCTYPE svg PUBLIC "-//W3C//DTD SVG 20010904//EN"
 "http://www.w3.org/TR/2001/REC-SVG-20010904/DTD/svg10.dtd">
<svg version="1.0" xmlns="http://www.w3.org/2000/svg"
 width="300.000000pt" height="300.000000pt" viewBox="0 0 300.000000 300.000000"
 preserveAspectRatio="xMidYMid meet">
<metadata>
Created by potrace 1.10, written by Peter Selinger 2001-2011
</metadata>
<g transform="translate(0.000000,300.000000) scale(0.100000,-0.100000)"
fill="#000000" stroke="none">
<path d="M889 2508 c-17 -3 -35 -12 -40 -20 -5 -7 -9 -68 -9 -135 0 -97 3
-125 16 -137 15 -16 61 -19 249 -17 39 1 75 -2 81 -6 9 -6 12 -147 10 -533 -1
-518 -1 -526 -23 -572 -12 -27 -28 -48 -36 -48 -28 0 -52 52 -53 115 -1 33 -2
65 -3 72 -1 15 -95 80 -169 117 -56 28 -80 28 -98 -2 -19 -30 -43 -125 -46
-185 -3 -56 -3 -57 -29 -52 -17 4 -44 -2 -74 -16 -26 -12 -54 -22 -61 -22 -8
0 -14 -4 -14 -8 0 -4 -9 -6 -20 -4 -11 2 -18 0 -15 -6 4 -5 -1 -9 -9 -9 -9 0
-30 -13 -47 -28 l-32 -29 19 -46 c10 -26 22 -47 27 -47 4 0 7 -5 7 -12 0 -14
81 -88 98 -88 6 0 12 -4 12 -9 0 -9 71 -39 141 -61 20 -6 89 -11 152 -11 99 0
119 -3 140 -19 59 -46 167 -90 275 -111 79 -15 257 -6 332 16 111 34 163 65
241 144 117 119 159 207 160 334 0 112 -37 187 -176 358 -213 263 -209 256
-197 297 15 48 74 110 131 136 72 33 189 29 265 -10 71 -36 166 -111 183 -144
7 -14 20 -42 29 -62 12 -28 23 -38 47 -44 18 -3 37 -10 42 -15 6 -4 29 -12 50
-18 22 -5 56 -14 75 -19 77 -19 107 29 96 150 -16 174 -154 330 -391 442 -92
44 -162 60 -265 60 -90 1 -148 -6 -193 -23 -15 -6 -27 -7 -27 -4 0 4 -5 2 -12
-5 -7 -7 -18 -12 -25 -12 -6 0 -42 -21 -78 -47 -37 -27 -80 -56 -96 -67 l-30
-18 2 85 3 85 110 1 c80 2 115 6 126 16 13 12 16 40 18 140 2 110 0 127 -16
141 -16 13 -71 16 -420 17 -220 1 -415 -1 -433 -5z m841 -153 l0 -135 -125 0
-125 0 1 -131 c0 -124 -1 -133 -25 -169 -86 -130 -88 -312 -4 -417 l30 -38 -4
-200 -3 -200 -34 -72 c-18 -39 -44 -82 -57 -94 l-23 -22 -63 28 c-35 16 -85
44 -111 62 -59 41 -74 38 -20 -4 95 -75 200 -107 327 -101 136 8 194 39 257
137 52 81 47 92 -165 356 -176 218 -180 226 -181 340 0 81 3 97 32 158 58 123
134 204 243 261 171 90 370 88 555 -5 146 -74 265 -183 318 -289 29 -58 32
-74 32 -151 0 -48 -3 -91 -7 -95 -4 -4 -64 10 -133 31 -113 35 -124 40 -119
59 12 51 -97 157 -225 218 -87 42 -197 45 -278 9 -78 -35 -163 -138 -163 -198
0 -8 70 -101 155 -206 166 -205 219 -293 230 -379 13 -108 -34 -223 -137 -333
-114 -122 -251 -177 -443 -177 -126 0 -214 21 -329 76 -87 42 -96 44 -206 49
-207 10 -318 65 -405 202 -20 31 -35 58 -33 60 1 2 57 27 122 56 94 42 121 50
124 39 3 -8 20 -30 39 -48 18 -19 33 -39 33 -45 0 -39 126 -203 174 -229 11
-6 -9 21 -46 60 -136 144 -174 289 -123 459 25 81 21 81 135 14 56 -34 106
-61 111 -61 12 0 11 -5 -2 -49 -14 -46 0 -103 35 -146 l24 -30 27 25 c15 14
37 45 49 70 20 44 21 59 24 583 l3 537 -176 0 -175 0 0 135 0 135 430 0 430 0
0 -135z m-197 -987 c29 -27 105 -120 165 -201 62 -83 64 -110 13 -175 -54 -68
-114 -98 -216 -108 -75 -6 -88 7 -59 61 47 88 63 167 65 324 0 67 3 121 5 121
1 0 14 -10 27 -22z"/>
</g>
</svg>
